<svg xmlns="http://www.w3.org/2000/svg" width="880" height="338" viewBox="0 0 880 338" role="img" aria-labelledby="t d">
<title id="t">Mean PSNR on UBO2014 (12 held-out materials), best configuration per method</title>
<desc id="d">PSNR in dB, higher is better; the axis starts at 25 dB. RoboCloth 36.76, PBR 33.05, UBOFAB19 32.27, MERL 30.64.</desc>
<style>text{font-family:Inter, 'Segoe UI', 'Helvetica Neue', Arial, sans-serif;fill:#2b2b2b;font-variant-numeric:tabular-nums}.tick,.sub,.axt{fill:#6e7884;font-weight:400}.name{fill:#4a515b;font-weight:600}.name.o{fill:#2b2b2b;font-weight:700}.v{fill:#4a515b;font-weight:600}.v.o{fill:#2b2b2b;font-weight:700}.in{fill:#ffffff;font-weight:600}</style>
<rect width="880" height="338" fill="#ffffff"/>
<text class="axt" x="172" y="20" font-size="15">PSNR (dB) on UBO2014 · higher is better</text>
<line x1="402.0" x2="402.0" y1="38" y2="300" stroke="#e3e6eb" stroke-width="1"/>
<line x1="632.0" x2="632.0" y1="38" y2="300" stroke="#e3e6eb" stroke-width="1"/>
<line x1="862.0" x2="862.0" y1="38" y2="300" stroke="#e3e6eb" stroke-width="1"/>
<text class="name o" x="156" y="76.0" font-size="18" text-anchor="end" dominant-baseline="middle">RoboCloth</text>
<path d="M172.00,58.00H707.96A5.0,5.0 0 0 1 712.96,63.00V89.00A5.0,5.0 0 0 1 707.96,94.00H172.00Z" fill="#3367d6"/>
<text class="v o" data-set="ubo2014" data-col="RoboCloth" x="725.0" y="76.0" font-size="18" dominant-baseline="middle">36.76</text>
<text class="name" x="156" y="140.0" font-size="18" text-anchor="end" dominant-baseline="middle">PBR</text>
<path d="M172.00,122.00H537.30A5.0,5.0 0 0 1 542.30,127.00V153.00A5.0,5.0 0 0 1 537.30,158.00H172.00Z" fill="#b4bbc5"/>
<text class="v" data-set="ubo2014" data-col="PBR" x="554.3" y="140.0" font-size="18" dominant-baseline="middle">33.05</text>
<text class="name" x="156" y="204.0" font-size="18" text-anchor="end" dominant-baseline="middle">UBOFAB19</text>
<path d="M172.00,186.00H501.42A5.0,5.0 0 0 1 506.42,191.00V217.00A5.0,5.0 0 0 1 501.42,222.00H172.00Z" fill="#b4bbc5"/>
<text class="v" data-set="ubo2014" data-col="Bonn" x="518.4" y="204.0" font-size="18" dominant-baseline="middle">32.27</text>
<text class="name" x="156" y="268.0" font-size="18" text-anchor="end" dominant-baseline="middle">MERL</text>
<path d="M172.00,250.00H426.44A5.0,5.0 0 0 1 431.44,255.00V281.00A5.0,5.0 0 0 1 426.44,286.00H172.00Z" fill="#b4bbc5"/>
<text class="v" data-set="ubo2014" data-col="MERL" x="443.4" y="268.0" font-size="18" dominant-baseline="middle">30.64</text>
<line x1="172" x2="862" y1="300" y2="300" stroke="#c5cad3" stroke-width="1"/>
<line x1="172" x2="172" y1="38" y2="300" stroke="#c5cad3" stroke-width="1"/>
<text class="tick" x="178.0" y="324" font-size="15" text-anchor="start">25 dB</text>
<text class="tick" x="402.0" y="324" font-size="15" text-anchor="middle">30</text>
<text class="tick" x="632.0" y="324" font-size="15" text-anchor="middle">35</text>
<text class="tick" x="862.0" y="324" font-size="15" text-anchor="middle">40</text>
</svg>
